<svg width="512" height="512" viewBox="0 0 512 512" fill="none" xmlns="http://www.w3.org/2000/svg">
<circle cx="256" cy="256" r="256" fill="#FAFAFA"/>
<path d="M239.03 380.279C222.401 367.612 208.855 351.338 199.41 332.681C189.965 314.023 184.867 293.466 184.498 272.553L191.267 275.224C205.663 281.14 231.594 277.991 238.267 292.018L239.698 295.167C239.698 285.625 244.56 222.077 214.529 193.165C184.498 164.254 107.085 160.628 107.085 160.628C107.085 160.628 130.442 171.124 132.73 189.253C135.018 207.383 134.065 228.661 178.11 239.252C178.11 239.252 164.763 211.199 168.005 192.879C192.506 247.935 218.247 194.406 216.15 270.644L137.402 243.832C144.014 251.74 149.12 260.796 152.465 270.549C154.753 281.808 160.187 362.055 239.03 380.375V380.279Z" fill="#FF001D"/>
<path d="M272.874 380.279C289.525 367.631 303.085 351.362 312.532 332.7C321.979 314.038 327.065 293.471 327.407 272.553L320.638 275.224C306.242 281.14 280.31 277.991 273.637 292.018L272.207 295.167C272.207 285.625 267.345 222.077 297.376 193.165C327.407 164.254 404.819 160.628 404.819 160.628C404.819 160.628 381.462 171.124 379.174 189.253C376.886 207.383 377.839 228.661 333.794 239.252C333.794 239.252 347.141 211.199 343.9 192.879C319.398 247.935 293.753 194.406 295.755 270.644L374.503 243.832C367.856 251.716 362.746 260.778 359.439 270.549C357.056 281.808 351.622 362.055 272.779 380.375L272.874 380.279Z" fill="#FF001D"/>
</svg>
